<svg width="24" height="24" viewBox="0 0 24 24" fill="none" xmlns="http://www.w3.org/2000/svg">
<path d="M22 19C22 19.5304 21.7893 20.0391 21.4142 20.4142C21.0391 20.7893 20.5304 21 20 21H4C3.46957 21 2.96086 20.7893 2.58579 20.4142C2.21071 20.0391 2 19.5304 2 19V5C2 4.46957 2.21071 3.96086 2.58579 3.58579C2.96086 3.21071 3.46957 3 4 3H9L11 6H20C20.5304 6 21.0391 6.21071 21.4142 6.58579C21.7893 6.96086 22 7.46957 22 8V19Z" stroke="#808080" stroke-width="2" stroke-linecap="round" stroke-linejoin="round"/>
<path fill-rule="evenodd" clip-rule="evenodd" d="M13 10C13 9.44772 12.5523 9 12 9C11.4477 9 11 9.44772 11 10V12H9C8.44772 12 8 12.4477 8 13C8 13.5523 8.44772 14 9 14H11V16C11 16.5523 11.4477 17 12 17C12.5523 17 13 16.5523 13 16V14H15C15.5523 14 16 13.5523 16 13C16 12.4477 15.5523 12 15 12H13V10Z" fill="#808080"/>
</svg>