<svg width="24" height="24" viewBox="0 0 24 24" fill="none" xmlns="http://www.w3.org/2000/svg">
<path fill-rule="evenodd" clip-rule="evenodd" d="M13.42 20.58L20.59 13.41C20.9625 13.0353 21.1716 12.5284 21.1716 12C21.1716 11.4716 20.9625 10.9647 20.59 10.59L12 2H2V12L10.59 20.58C10.7757 20.766 10.9963 20.9135 11.2391 21.0141C11.4819 21.1148 11.7422 21.1666 12.005 21.1666C12.2678 21.1666 12.5281 21.1148 12.7709 21.0141C13.0137 20.9135 13.2343 20.766 13.42 20.58ZM7 5C5.89543 5 5 5.89543 5 7C5 8.10457 5.89543 9 7 9H7.01C8.11457 9 9.01 8.10457 9.01 7C9.01 5.89543 8.11457 5 7.01 5H7Z" fill="#2A82DA"/>
</svg>