<svg width="24" height="24" viewBox="0 0 24 24" fill="none" xmlns="http://www.w3.org/2000/svg">
<path fill-rule="evenodd" clip-rule="evenodd" d="M3.8867 3.65446C3.72163 3.98968 3.62891 4.36692 3.62891 4.76583V7.02183V11.0218V15.0218V17.2778C3.62891 18.669 4.7567 19.7968 6.14791 19.7968H8.40391H16.4039H18.6599C19.0588 19.7968 19.4361 19.7041 19.7713 19.539L18.4791 18.2468H17.1789V16.9467L15.6289 15.3967V18.2468H9.17891V15.0218V11.7968H12.0291L10.4791 10.2468H9.17891V8.94667L6.47906 6.24683H5.17891V4.94667L3.8867 3.65446ZM7.62891 3.86114V3.79683H7.56459L6.01789 2.25012C6.06095 2.24793 6.1043 2.24683 6.14791 2.24683H8.40391H16.4039H18.6599C20.0511 2.24683 21.1789 3.37462 21.1789 4.76583V7.02183V11.0218V15.0218V17.2778C21.1789 17.3214 21.1778 17.3648 21.1756 17.4078L19.6289 15.8611V15.7968H19.5646L18.0146 14.2468H19.6289V11.7968H17.1789V13.4111L15.6289 11.8611V11.7968H15.5646L14.0146 10.2468H15.6289V7.02183V3.79683H9.17891V5.41114L7.62891 3.86114ZM17.1789 6.24683V3.79683H18.6599C19.1951 3.79683 19.6289 4.23066 19.6289 4.76583V6.24683H17.1789ZM17.1789 7.79683H19.6289V10.2468H17.1789V7.79683ZM7.62891 15.7968V18.2468H6.14791C5.61274 18.2468 5.17891 17.813 5.17891 17.2778V15.7968H7.62891ZM7.62891 14.2468H5.17891V11.7968H7.62891V14.2468ZM7.62891 10.2468H5.17891V7.79683H7.62891V10.2468Z" fill="#F31111"/>
<path d="M3 3L20 20" stroke="#F31111" stroke-width="2" stroke-linecap="round" stroke-linejoin="round"/>
</svg>