<svg width="24" height="25" viewBox="0 0 24 25" fill="none" xmlns="http://www.w3.org/2000/svg">
<path d="M14 2.44153H6C5.46957 2.44153 4.96086 2.65224 4.58579 3.02731C4.21071 3.40239 4 3.9111 4 4.44153V20.4415C4 20.972 4.21071 21.4807 4.58579 21.8557C4.96086 22.2308 5.46957 22.4415 6 22.4415H18C18.5304 22.4415 19.0391 22.2308 19.4142 21.8557C19.7893 21.4807 20 20.972 20 20.4415V8.44153L14 2.44153Z" stroke="#808080" stroke-opacity="0.4" stroke-width="2" stroke-linecap="round" stroke-linejoin="round"/>
<path d="M13.3333 20.4415L13.4445 17.386L10.8611 19.0249L10.1945 17.8582L12.9167 16.4415L10.1945 15.0249L10.8611 13.8582L13.4445 15.4971L13.3333 12.4415H14.6667L14.5556 15.4971L17.1389 13.8582L17.8056 15.0249L15.0833 16.4415L17.8056 17.8582L17.1389 19.0249L14.5556 17.386L14.6667 20.4415H13.3333Z" fill="#808080" fill-opacity="0.4"/>
</svg>