<svg width="24" height="25" viewBox="0 0 24 25" fill="none" xmlns="http://www.w3.org/2000/svg">
<path fill-rule="evenodd" clip-rule="evenodd" d="M1 4.84473V20.4847C1 22.241 2.42373 23.6647 4.18 23.6647H19.82C21.5763 23.6647 23 22.241 23 20.4847V4.84473C23 3.08847 21.5763 1.66473 19.82 1.66473H4.18C2.42373 1.66473 1 3.08847 1 4.84473ZM3 4.84473C3 4.19304 3.5283 3.66473 4.18 3.66473H6V6.66473H3V4.84473ZM3 8.66473H6V11.6647H3V8.66473ZM21 6.66473V4.84473C21 4.19304 20.4717 3.66473 19.82 3.66473H18V6.66473H21ZM18 8.66473H21V11.6647H18V8.66473ZM16 3.66473H8V11.6647H16V3.66473ZM21 13.6647V16.6647H18V13.6647H21ZM21 18.6647H18V21.6647H19.82C20.4717 21.6647 21 21.1364 21 20.4847V18.6647ZM16 13.6647V21.6647H8V13.6647H16ZM3 18.6647V20.4847C3 21.1364 3.5283 21.6647 4.18 21.6647H6V18.6647H3ZM6 16.6647H3V13.6647H6V16.6647Z" fill="#808080" fill-opacity="0.4"/>
</svg>
