<svg width="24" height="24" viewBox="0 0 24 24" fill="none" xmlns="http://www.w3.org/2000/svg">
<g clip-path="url(#clip0_161_613)">
<path d="M4.25 0.875H19.75C21.6168 0.875 23.125 2.38325 23.125 4.25V19.15C23.125 21.0168 21.6168 22.525 19.75 22.525H4.25C2.38325 22.525 0.875 21.0168 0.875 19.15V4.25C0.875 2.38325 2.38325 0.875 4.25 0.875Z" stroke="#2A82DA" stroke-width="1.75" stroke-linejoin="round"/>
<path d="M9.63994 14H5.91995L5.15995 16.36C5.13995 16.45 5.05995 16.51 4.96995 16.5H3.08995C2.97995 16.5 2.94995 16.44 2.97995 16.32L6.19995 7.09002C6.22995 6.99002 6.25995 6.90002 6.29995 6.78002C6.33995 6.57002 6.35995 6.35002 6.35995 6.13002C6.34995 6.08002 6.38995 6.03002 6.43995 6.02002H6.46995H9.02994C9.09995 6.02002 9.14994 6.05002 9.15994 6.10002L12.8099 16.3C12.8399 16.41 12.8099 16.46 12.7099 16.46H10.6199C10.5499 16.47 10.4799 16.42 10.4599 16.35L9.63994 13.95V14ZM6.49995 12.01H9.03995C8.97995 11.8 8.89994 11.55 8.80994 11.29C8.71994 11.02 8.62995 10.73 8.53995 10.43C8.43995 10.12 8.34995 9.82002 8.24995 9.51002C8.14995 9.20002 8.05995 8.91002 7.97995 8.62002C7.89995 8.34002 7.82995 8.08002 7.75995 7.84002H7.73995C7.64995 8.27002 7.53995 8.70002 7.39995 9.13002C7.24995 9.61002 7.09995 10.11 6.93995 10.61C6.80995 11.12 6.64995 11.59 6.49995 12.01Z" fill="#2A82DA"/>
<path d="M18.6999 13.1H15.5299C15.5699 13.41 15.6699 13.72 15.8399 13.99C16.0199 14.26 16.2699 14.47 16.5699 14.59C16.9699 14.76 17.4099 14.85 17.8499 14.84C18.1999 14.83 18.5499 14.8 18.8899 14.73C19.1999 14.69 19.4999 14.61 19.7799 14.5C19.8299 14.46 19.8599 14.48 19.8599 14.58V16.11C19.8599 16.15 19.8499 16.19 19.8399 16.23C19.8199 16.26 19.7999 16.28 19.7699 16.3C19.4499 16.44 19.1199 16.54 18.7699 16.6C18.2999 16.69 17.8299 16.73 17.3499 16.72C16.5899 16.72 15.9499 16.6 15.4299 16.37C14.9399 16.16 14.5099 15.83 14.1699 15.42C13.8499 15.03 13.6199 14.59 13.4799 14.11C13.3399 13.64 13.2699 13.15 13.2699 12.65C13.2699 12.11 13.3499 11.58 13.5199 11.06C13.6799 10.56 13.9299 10.1 14.2699 9.69C14.5999 9.29 15.0099 8.97 15.4799 8.74C15.9499 8.51 16.5099 8.43 17.1499 8.43C17.6799 8.42 18.2099 8.52 18.6999 8.74C19.1099 8.92 19.4699 9.19 19.7499 9.54C20.0099 9.88 20.2199 10.26 20.3499 10.68C20.4799 11.08 20.5399 11.49 20.5399 11.9C20.5399 12.14 20.5299 12.35 20.5199 12.54C20.4999 12.73 20.4899 12.87 20.4799 12.96C20.4699 13.03 20.4099 13.09 20.3399 13.09C20.2799 13.09 20.1699 13.1 20.0099 13.11C19.8499 13.13 19.6599 13.14 19.4299 13.14C19.1999 13.14 18.9599 13.1 18.6999 13.1ZM15.5299 11.64H17.6399C17.8999 11.64 18.0899 11.64 18.2099 11.63C18.2899 11.62 18.3699 11.6 18.4399 11.55V11.45C18.4399 11.32 18.4199 11.2 18.3799 11.08C18.1999 10.52 17.6699 10.14 17.0799 10.16C16.5299 10.13 16.0099 10.42 15.7499 10.92C15.6299 11.15 15.5599 11.39 15.5299 11.64Z" fill="#2A82DA"/>
</g>
<defs>
<clipPath id="clip0_161_613">
<rect width="24" height="23.4" fill="white"/>
</clipPath>
</defs>
</svg>