<svg width="24" height="25" viewBox="0 0 24 25" fill="none" xmlns="http://www.w3.org/2000/svg">
<g clip-path="url(#clip0_161_773)">
<path d="M12.001 1.69104C9.8836 1.69104 7.81374 2.31893 6.05317 3.4953C4.2926 4.67168 2.92041 6.3437 2.11011 8.29994C1.2998 10.2562 1.08779 12.4088 1.50088 14.4855C1.91397 16.5622 2.9336 18.4698 4.43084 19.9671C5.92808 21.4643 7.83568 22.4839 9.91241 22.897C11.9891 23.3101 14.1417 23.0981 16.098 22.2878C18.0542 21.4775 19.7262 20.1053 20.9026 18.3447C22.079 16.5842 22.7069 14.5143 22.7069 12.3969C22.703 9.55872 21.5738 6.8379 19.5669 4.83101C17.56 2.82411 14.8392 1.69493 12.001 1.69104Z" fill="#353535"/>
<path d="M12.0011 1.69105C9.88366 1.69105 7.81379 2.31894 6.05323 3.49531C4.29266 4.67169 2.92046 6.34371 2.11016 8.29995C1.29986 10.2562 1.08785 12.4088 1.50094 14.4855C1.91403 16.5622 2.93366 18.4698 4.4309 19.9671C5.92814 21.4643 7.83574 22.484 9.91247 22.897C11.9892 23.3101 14.1418 23.0981 16.098 22.2878C18.0543 21.4775 19.7263 20.1053 20.9027 18.3448C22.079 16.5842 22.7069 14.5143 22.7069 12.3969C22.703 9.55873 21.5739 6.83791 19.567 4.83102C17.5601 2.82412 14.8393 1.69494 12.0011 1.69105V1.69105ZM12.0011 24.4001C9.62741 24.4005 7.30692 23.697 5.33308 22.3785C3.35924 21.0601 1.82071 19.1859 0.912058 16.9931C0.00340542 14.8002 -0.234555 12.3871 0.228271 10.059C0.691097 7.73089 1.83392 5.59231 3.51221 3.91372C5.19051 2.23514 7.32889 1.09194 9.65692 0.628705C11.985 0.165472 14.3981 0.40301 16.5911 1.31128C18.7841 2.21955 20.6586 3.75775 21.9773 5.73136C23.2961 7.70497 24 10.0253 24 12.399C23.9967 15.5805 22.7315 18.6308 20.4821 20.8806C18.2326 23.1305 15.1826 24.3962 12.0011 24.4001" fill="#FDB434"/>
<path d="M13.1325 8.58688C13.5523 8.16704 14.5746 8.37696 15.2548 9.08229C15.9349 9.78761 16.3463 10.7889 15.704 11.32C15.2485 11.6979 14.5033 11.5551 13.7581 10.917C12.9331 10.2158 12.6476 9.05919 13.1325 8.58688ZM10.9514 10.3691L14.0771 13.7404C14.143 13.8029 14.1955 13.8781 14.2316 13.9614C14.2677 14.0447 14.2865 14.1345 14.287 14.2253L14.0058 20.9091C14.0058 21.4339 14.3437 21.8537 14.8454 21.6795C17.8011 20.6509 19.6043 19.024 20.4964 16.9018C20.5638 16.7583 20.5874 16.5981 20.5643 16.4413C20.5411 16.2845 20.4723 16.138 20.3663 16.0201L17.6332 13.1148C17.4253 12.898 17.3095 12.6091 17.3099 12.3087L17.2889 10.6966C17.2889 10.597 17.3087 10.4984 17.3473 10.4066C17.3859 10.3149 17.4425 10.2317 17.5137 10.1621C17.5849 10.0925 17.6692 10.0378 17.7618 10.0012C17.8545 9.96469 17.9534 9.94701 18.053 9.94925L20.2319 9.97864C21.2647 9.97864 21.3466 9.59659 21.1934 9.17885C20.1753 6.35964 18.3406 4.36332 15.5529 3.30113C15.4782 3.27176 15.3975 3.26105 15.3177 3.26994C15.2379 3.27883 15.1616 3.30704 15.0952 3.35212C15.0288 3.39721 14.9744 3.45781 14.9367 3.52866C14.8991 3.59952 14.8793 3.6785 14.879 3.75875L14.6943 6.59055C14.6883 6.7385 14.6253 6.8784 14.5185 6.98093C14.4117 7.08346 14.2693 7.14066 14.1212 7.14054H12.5972C12.2594 7.13853 11.9345 7.01053 11.6862 6.78158L8.60665 3.69158C8.51774 3.59858 8.40248 3.53506 8.27638 3.50954C8.15028 3.48402 8.01939 3.49773 7.90132 3.54883C5.42428 4.68239 3.72394 6.50868 2.73102 9.09488C2.69928 9.18997 2.69069 9.29126 2.70597 9.39033C2.72125 9.48941 2.75997 9.5834 2.81889 9.6645C2.87782 9.7456 2.95525 9.81146 3.04475 9.8566C3.13426 9.90175 3.23325 9.92487 3.33349 9.92406L9.97742 9.96604C10.3411 9.96547 10.6907 10.1071 10.9514 10.3607" fill="#FDB434"/>
</g>
<defs>
<clipPath id="clip0_161_773">
<rect width="24" height="24" fill="white" transform="translate(0 0.400024)"/>
</clipPath>
</defs>
</svg>