<svg width="24" height="24" viewBox="0 0 24 24" fill="none" xmlns="http://www.w3.org/2000/svg">
<path fill-rule="evenodd" clip-rule="evenodd" d="M3.11612 4.11612C3.35054 3.8817 3.66848 3.75 4 3.75H8.59861L10.376 6.41603C10.5151 6.62467 10.7492 6.75 11 6.75H20C20.3315 6.75 20.6495 6.8817 20.8839 7.11612C21.1183 7.35054 21.25 7.66848 21.25 8V8.60427C21.8064 9.01149 22.3104 9.48605 22.75 10.016V8C22.75 7.27065 22.4603 6.57118 21.9445 6.05546C21.4288 5.53973 20.7293 5.25 20 5.25H11.4014L9.62404 2.58397C9.48494 2.37533 9.25076 2.25 9 2.25H4C3.27065 2.25 2.57118 2.53973 2.05546 3.05546C1.53973 3.57118 1.25 4.27065 1.25 5V19C1.25 19.7293 1.53973 20.4288 2.05546 20.9445C2.57118 21.4603 3.27065 21.75 4 21.75H11.016C10.4861 21.3104 10.0115 20.8064 9.60427 20.25H4C3.66848 20.25 3.35054 20.1183 3.11612 19.8839C2.8817 19.6495 2.75 19.3315 2.75 19V5C2.75 4.66848 2.8817 4.35054 3.11612 4.11612ZM12.3408 20.25C13.4303 21.1358 14.8198 21.6667 16.3333 21.6667C16.373 21.6667 16.4126 21.6663 16.4522 21.6656C17.7946 21.6409 19.0349 21.1985 20.0487 20.4629L21.1043 21.5185C21.4147 21.3824 21.7002 21.1888 21.9445 20.9445C22.1888 20.7002 22.3824 20.4147 22.5185 20.1043L21.4629 19.0487C22.192 18.0439 22.633 16.8166 22.6648 15.4878C22.666 15.4365 22.6667 15.385 22.6667 15.3333C22.6667 13.8198 22.1358 12.4303 21.25 11.3408V19C21.25 19.3315 21.1183 19.6495 20.8839 19.8839C20.6495 20.1183 20.3315 20.25 20 20.25H12.3408Z" fill="#F37011"/>
<path fill-rule="evenodd" clip-rule="evenodd" d="M12 15.3333C12 12.9401 13.9401 11 16.3333 11C18.7266 11 20.6667 12.9401 20.6667 15.3333C20.6667 16.4928 20.2113 17.5459 19.4697 18.3235C19.4432 18.3451 19.4175 18.3682 19.3929 18.3929C19.3682 18.4175 19.3451 18.4432 19.3235 18.4697C18.5459 19.2113 17.4928 19.6667 16.3333 19.6667C13.9401 19.6667 12 17.7266 12 15.3333ZM20.0487 20.4629C19.0051 21.2202 17.7214 21.6667 16.3333 21.6667C12.8355 21.6667 10 18.8311 10 15.3333C10 11.8355 12.8355 9 16.3333 9C19.8311 9 22.6667 11.8355 22.6667 15.3333C22.6667 16.7214 22.2202 18.0051 21.4629 19.0487L23.7071 21.2929C24.0976 21.6834 24.0976 22.3166 23.7071 22.7071C23.3166 23.0976 22.6834 23.0976 22.2929 22.7071L20.0487 20.4629Z" fill="#F37011"/>
</svg>