<svg width="24" height="24" viewBox="0 0 24 24" fill="none" xmlns="http://www.w3.org/2000/svg">
<path fill-rule="evenodd" clip-rule="evenodd" d="M3.29289 4.29289C3.48043 4.10536 3.73478 4 4 4H8.46482L10.1679 6.5547C10.3534 6.8329 10.6656 7 11 7H16.3333H20C20.2652 7 20.5196 7.10536 20.7071 7.29289C20.8946 7.48043 21 7.73478 21 8V8.42822C21.7676 8.94803 22.444 9.59248 23 10.3325V8C23 7.20435 22.6839 6.44129 22.1213 5.87868C21.5587 5.31607 20.7957 5 20 5H11.5352L9.83205 2.4453C9.64658 2.1671 9.33435 2 9 2H4C3.20435 2 2.44129 2.31607 1.87868 2.87868C1.31607 3.44129 1 4.20435 1 5V19C1 19.7957 1.31607 20.5587 1.87868 21.1213C2.44129 21.6839 3.20435 22 4 22H11.3325C10.5925 21.444 9.94803 20.7676 9.42822 20H4C3.73478 20 3.48043 19.8946 3.29289 19.7071C3.10536 19.5196 3 19.2652 3 19V5C3 4.73478 3.10536 4.48043 3.29289 4.29289ZM12.0515 20C13.1789 21.0349 14.6823 21.6667 16.3333 21.6667C16.373 21.6667 16.4126 21.6663 16.4522 21.6656C17.7946 21.6409 19.0349 21.1985 20.0487 20.4629L21.2929 21.7071C21.5975 21.5617 21.8781 21.3645 22.1213 21.1213C22.3645 20.8781 22.5617 20.5975 22.7071 20.2929L21.4629 19.0487C22.192 18.0439 22.633 16.8166 22.6648 15.4878C22.666 15.4365 22.6667 15.385 22.6667 15.3333C22.6667 13.6823 22.0349 12.1789 21 11.0515V19C21 19.2652 20.8946 19.5196 20.7071 19.7071C20.5196 19.8946 20.2652 20 20 20H12.0515Z" fill="#F37011"/>
<path fill-rule="evenodd" clip-rule="evenodd" d="M12 15.3333C12 12.9401 13.9401 11 16.3333 11C18.7266 11 20.6667 12.9401 20.6667 15.3333C20.6667 16.4928 20.2113 17.5459 19.4697 18.3235C19.4432 18.3451 19.4175 18.3682 19.3929 18.3929C19.3682 18.4175 19.3451 18.4432 19.3235 18.4697C18.5459 19.2113 17.4928 19.6667 16.3333 19.6667C13.9401 19.6667 12 17.7266 12 15.3333ZM20.0487 20.4629C19.0051 21.2202 17.7214 21.6667 16.3333 21.6667C12.8355 21.6667 10 18.8311 10 15.3333C10 11.8355 12.8355 9 16.3333 9C19.8311 9 22.6667 11.8355 22.6667 15.3333C22.6667 16.7214 22.2202 18.0051 21.4629 19.0487L23.7071 21.2929C24.0976 21.6834 24.0976 22.3166 23.7071 22.7071C23.3166 23.0976 22.6834 23.0976 22.2929 22.7071L20.0487 20.4629Z" fill="#F37011"/>
<path d="M6.66861 10.1041L6.72543 8.54157L5.40441 9.37964L5.0635 8.78305L6.45554 8.05862L5.0635 7.33418L5.40441 6.73759L6.72543 7.57566L6.66861 6.01316H7.35043L7.29361 7.57566L8.61464 6.73759L8.95554 7.33418L7.5635 8.05862L8.95554 8.78305L8.61464 9.37964L7.29361 8.54157L7.35043 10.1041H6.66861Z" fill="#F37011"/>
</svg>